<svg width="44" height="44" viewBox="0 0 44 44" fill="none" xmlns="http://www.w3.org/2000/svg">
<rect width="44" height="44" rx="8" fill="#2E1066"/>
<rect width="44" height="44" rx="8" fill="#410F9E"/>
<rect width="44" height="44" rx="8" fill="#453888"/>
<rect width="44" height="44" rx="8" fill="#5946D7"/>
<rect width="44" height="44" rx="8" fill="#6B59CC"/>
<path fill-rule="evenodd" clip-rule="evenodd" d="M15 23C14.4475 23 14 22.5525 14 22C14 21.4475 14.4475 21 15 21C15.5525 21 16 21.4475 16 22C16 22.5525 15.5525 23 15 23Z" fill="white" stroke="white" stroke-width="1.5" stroke-linecap="round" stroke-linejoin="round"/>
<path fill-rule="evenodd" clip-rule="evenodd" d="M22 23C21.4475 23 21 22.5525 21 22C21 21.4475 21.4475 21 22 21C22.5525 21 23 21.4475 23 22C23 22.5525 22.5525 23 22 23Z" fill="white" stroke="white" stroke-width="1.5" stroke-linecap="round" stroke-linejoin="round"/>
<path fill-rule="evenodd" clip-rule="evenodd" d="M29 23C28.4475 23 28 22.5525 28 22C28 21.4475 28.4475 21 29 21C29.5525 21 30 21.4475 30 22C30 22.5525 29.5525 23 29 23Z" fill="white" stroke="white" stroke-width="1.5" stroke-linecap="round" stroke-linejoin="round"/>
<path fill-rule="evenodd" clip-rule="evenodd" d="M15 30C14.4475 30 14 29.5525 14 29C14 28.4475 14.4475 28 15 28C15.5525 28 16 28.4475 16 29C16 29.5525 15.5525 30 15 30Z" fill="white" stroke="white" stroke-width="1.5" stroke-linecap="round" stroke-linejoin="round"/>
<path fill-rule="evenodd" clip-rule="evenodd" d="M22 30C21.4475 30 21 29.5525 21 29C21 28.4475 21.4475 28 22 28C22.5525 28 23 28.4475 23 29C23 29.5525 22.5525 30 22 30Z" fill="white" stroke="white" stroke-width="1.5" stroke-linecap="round" stroke-linejoin="round"/>
<path fill-rule="evenodd" clip-rule="evenodd" d="M29 30C28.4475 30 28 29.5525 28 29C28 28.4475 28.4475 28 29 28C29.5525 28 30 28.4475 30 29C30 29.5525 29.5525 30 29 30Z" fill="white" stroke="white" stroke-width="1.5" stroke-linecap="round" stroke-linejoin="round"/>
<path fill-rule="evenodd" clip-rule="evenodd" d="M15 16C14.4475 16 14 15.5525 14 15C14 14.4475 14.4475 14 15 14C15.5525 14 16 14.4475 16 15C16 15.5525 15.5525 16 15 16Z" fill="white" stroke="white" stroke-width="1.5" stroke-linecap="round" stroke-linejoin="round"/>
<path fill-rule="evenodd" clip-rule="evenodd" d="M22 16C21.4475 16 21 15.5525 21 15C21 14.4475 21.4475 14 22 14C22.5525 14 23 14.4475 23 15C23 15.5525 22.5525 16 22 16Z" fill="white" stroke="white" stroke-width="1.5" stroke-linecap="round" stroke-linejoin="round"/>
<path fill-rule="evenodd" clip-rule="evenodd" d="M29 16C28.4475 16 28 15.5525 28 15C28 14.4475 28.4475 14 29 14C29.5525 14 30 14.4475 30 15C30 15.5525 29.5525 16 29 16Z" fill="white" stroke="white" stroke-width="1.5" stroke-linecap="round" stroke-linejoin="round"/>
</svg>
